<?xml version="1.0" encoding="UTF-8"?>
<svg width="693px" height="691px" viewBox="0 0 693 691" version="1.1" xmlns="http://www.w3.org/2000/svg" xmlns:xlink="http://www.w3.org/1999/xlink">
    <!-- Generator: Sketch 44.1 (41455) - http://www.bohemiancoding.com/sketch -->
    <title>wwg_adesivo</title>
    <desc>Created with Sketch.</desc>
    <defs></defs>
    <g id="Page-1" stroke="none" stroke-width="1" fill="none" fill-rule="evenodd">
        <g id="wwg_adesivo" transform="translate(-34.000000, 1.000000)">
            <rect id="Rectangle-path" fill="#7ADEF9" fill-rule="nonzero" x="163" y="125.413" width="403.504" height="301.587"></rect>
            <g id="Artboard" transform="translate(36.000000, 0.000000)">
                <g id="Fundo" stroke="#000000" fill-rule="nonzero">
                    <path d="M325.387,0.517 C145.894,0.517 0.387,146.024 0.387,325.517 C0.387,505.009 145.894,650.517 325.387,650.517 C504.879,650.517 650.387,505.009 650.387,325.517 C650.387,146.023 504.879,0.517 325.387,0.517 Z M490.709,458.683 C479.932,507.358 468.402,522.937 431.406,532.355 C394.412,541.774 312.022,548.032 288.655,533.993 C273.076,524.635 259.288,510.907 247.293,492.814 C244.133,487.448 241.962,481.752 240.783,475.728 C239.602,469.704 239.038,461.446 239.092,450.956 C240.493,430.492 233.183,413.57 229.677,400.191 C224.418,380.124 205.34,349.566 196.797,336.749 C192.251,329.931 186.345,322.257 176.147,301.905 C165.947,281.554 166.74,255.103 167.081,247.585 C167.153,245.994 167.426,243.924 167.947,241.472 C155.413,239.238 142.512,225.627 148.143,216.378 C153.564,207.474 171.017,208.896 180.71,211.595 C193.689,191.023 217.712,167.682 260.032,155.439 C309.652,141.085 349.236,141.085 378.789,155.439 C379.373,155.914 379.939,156.377 380.492,156.828 C383.861,148.662 398.869,137.971 407.351,145.936 C415.058,153.176 408.691,170.2 402.722,177.643 C414.392,191.601 417.222,201.201 421.714,213.914 C427.759,231.025 432.804,243.659 436.849,251.813 L443.632,264.569 C482.203,361.529 497.897,426.234 490.709,458.683 Z" id="Shape" stroke-width="3" fill="#0F73B7"></path>
                    <path d="M325.387,47.517 C173.508,47.517 50.387,170.638 50.387,322.517 C50.387,474.395 173.508,597.517 325.387,597.517 C477.265,597.517 600.387,474.395 600.387,322.517 C600.387,170.638 477.266,47.517 325.387,47.517 Z M490.709,458.683 C479.932,507.358 468.402,522.937 431.406,532.355 C394.412,541.774 312.022,548.032 288.655,533.993 C273.076,524.635 259.288,510.907 247.293,492.814 C244.133,487.448 241.962,481.752 240.783,475.728 C239.602,469.704 239.038,461.446 239.092,450.956 C240.493,430.492 233.183,413.57 229.677,400.191 C224.418,380.124 205.34,349.566 196.797,336.749 C192.251,329.931 186.345,322.257 176.147,301.905 C165.947,281.554 166.74,255.103 167.081,247.585 C167.153,245.994 167.426,243.924 167.947,241.472 C155.413,239.238 142.512,225.627 148.143,216.378 C153.564,207.474 171.017,208.896 180.71,211.595 C193.689,191.023 217.712,167.682 260.032,155.439 C309.652,141.085 349.236,141.085 378.789,155.439 C379.373,155.914 379.939,156.377 380.492,156.828 C383.861,148.662 398.869,137.971 407.351,145.936 C415.058,153.176 408.691,170.2 402.722,177.643 C414.392,191.601 417.222,201.201 421.714,213.914 C427.759,231.025 432.804,243.659 436.849,251.813 L443.632,264.569 C482.203,361.529 497.897,426.234 490.709,458.683 Z" id="Shape" stroke-width="3" fill="#A6D0ED"></path>
                    <polygon id="Star-4" stroke-width="2" fill="#FFFFFF" points="24.887 349.517 12.25 356.315 14.664 341.916 4.439 331.718 18.568 329.617 24.887 316.517 31.206 329.617 45.335 331.718 35.111 341.916 37.524 356.315"></polygon>
                    <polygon id="Star-4_1_" stroke-width="2" fill="#FFFFFF" points="557.887 144.517 545.25 151.314 547.662 136.916 537.44 126.718 551.569 124.617 557.887 111.517 564.205 124.617 578.334 126.718 568.112 136.916 570.524 151.314"></polygon>
                    <polygon id="Star-4_2_" stroke-width="2" fill="#FFFFFF" points="536.887 547.517 524.25 554.315 526.662 539.916 516.44 529.718 530.569 527.617 536.887 514.517 543.205 527.617 557.334 529.718 547.112 539.916 549.524 554.315"></polygon>
                    <polygon id="Star-4_3_" stroke-width="2" fill="#FFFFFF" points="324.887 633.517 312.25 640.315 314.663 625.916 304.439 615.718 318.568 613.617 324.887 600.517 331.206 613.617 345.334 615.718 335.111 625.916 337.524 640.315"></polygon>
                    <polygon id="Star-4_4_" stroke-width="2" fill="#FFFFFF" points="103.887 130.517 91.25 137.314 93.664 122.916 83.439 112.718 97.568 110.617 103.887 97.517 110.206 110.617 124.335 112.718 114.111 122.916 116.524 137.314"></polygon>
                    <polygon id="Star-4_5_" stroke-width="2" fill="#FFFFFF" points="624.887 343.517 612.25 350.315 614.662 335.916 604.44 325.718 618.569 323.617 624.887 310.517 631.205 323.617 645.334 325.718 635.112 335.916 637.524 350.315"></polygon>
                    <polygon id="Star-4_6_" stroke-width="2" fill="#FFFFFF" points="323.887 36.517 311.25 43.314 313.663 28.916 303.439 18.718 317.568 16.617 323.887 3.517 330.206 16.617 344.334 18.718 334.111 28.916 336.524 43.314"></polygon>
                    <polygon id="Star-4_7_" stroke-width="2" fill="#FFFFFF" points="124.887 555.517 112.25 562.315 114.663 547.916 104.439 537.718 118.568 535.617 124.887 522.517 131.206 535.617 145.335 537.718 135.111 547.916 137.524 562.315"></polygon>
                </g>
                <g id="Gopher" transform="translate(29.000000, 73.000000)">
                    <g id="espada" transform="translate(0.000000, 127.000000)">
                        <path d="M171.129,268.053 L191.192,252.083 C188.173,248.822 177.609,241.989 170.06,232.816 C159.858,220.419 156.577,204.469 156.577,204.469 L143.178,212.872 L136.453,221.779 C136.453,221.779 149.976,232.886 155.751,242.203 C161.524,251.519 171.129,268.053 171.129,268.053 Z" id="Path-10" stroke="#000000" stroke-width="2" fill="#F7F178" fill-rule="nonzero"></path>
                        <g id="Rectangle">
                            <path d="M2.286,1.684 L40.874,18.37 L156.637,198.793 L129.521,221.737 L117.006,211.307 C46.783,109.798 8.544,54.177 2.286,44.443 C-0.495,9.68 -0.495,-4.573 2.286,1.684 Z" id="path-1" fill="#FFFFFF" fill-rule="nonzero"></path>
                            <path d="M1.465,2.403 C1.321,3.563 1.244,5.338 1.244,7.68 C1.244,14.736 1.931,26.881 3.306,44.098 C9.968,54.405 48.14,109.925 117.783,210.598 L129.516,220.374 L155.266,198.587 L40.169,19.201 L1.499,2.479 L1.465,2.403 Z" id="Shape" stroke="#000000" stroke-width="2"></path>
                        </g>
                        <path d="M2.286,3.77 L128.478,191.494" id="Path-11" stroke="#000000" stroke-width="2"></path>
                        <g id="Rectangle-2" transform="translate(103.000000, 178.000000)">
                            <path d="M24.435,12.45 L44.25,18.708 L53.636,0.978 C53.636,1.673 54.679,10.713 56.764,28.094 C44.249,33.308 40.078,36.437 33.82,48.951 C26.867,46.171 15.742,41.998 0.447,36.436 L24.434,32.265 L24.434,12.45 L24.435,12.45 Z" id="path-2" fill="#F7F178" fill-rule="nonzero"></path>
                            <path d="M25.478,13.873 L25.478,33.143 L4.476,36.795 C17.297,41.476 26.91,45.085 33.32,47.63 C39.094,36.289 43.185,32.692 55.636,27.438 C54.283,16.166 53.393,8.591 52.942,4.519 L44.765,19.965 L25.478,13.873 Z" id="Shape" stroke="#000000" stroke-width="2"></path>
                        </g>
                    </g>
                    <g id="mao" transform="translate(165.000000, 326.000000)" stroke="#000000" stroke-width="3" fill="#FFE1C6" fill-rule="nonzero">
                        <path d="M43.678,12.19 C42.756,8.672 41.403,4.829 39.763,0.819 C28.891,4.722 12.012,12.009 5.359,21.502 C-4.807,36.002 2.175,53.836 23.475,47.751 C31.196,45.545 42.621,39.73 50.368,35.525 C48.259,26.821 45.472,19.038 43.678,12.19 Z" id="Shape"></path>
                    </g>
                    <g id="pé-esquerdo_1_" transform="translate(236.220010, 460.287051) rotate(20.000000) translate(-236.220010, -460.287051) translate(212.220010, 433.287051)" stroke="#000000" stroke-width="3" fill="#FFE1C6" fill-rule="nonzero">
                        <path d="M10.413,5.961 C3.563,16.239 0.246,24.207 0.46,29.863 C0.784,38.35 4.135,50.535 19.455,53.201 C29.781,54.995 41.272,41.98 44.237,33.299 C48.26,21.511 48.209,10.616 44.079,0.606 L10.413,5.961 Z" id="Path-3_1_"></path>
                    </g>
                    <g id="pé-direito" transform="translate(430.000000, 407.000000)" stroke="#000000" stroke-width="3" fill="#FFE1C6" fill-rule="nonzero">
                        <path d="M23.016,1.284 C25.102,0.589 28.926,0.589 34.489,1.284 C40.051,1.98 44.569,5.456 48.048,11.714 C54.304,23.532 54.304,32.225 48.048,37.786 C43.876,43.001 10.501,45.087 0.073,35.701 C1.463,30.834 9.112,19.361 23.016,1.284 Z" id="Path-16"></path>
                    </g>
                    <g id="orelha-E" transform="translate(351.000000, 70.000000)" stroke="#000000" stroke-width="2">
                        <path d="M15.252,26.38 C18.09,29.316 20.559,32.054 22.723,34.642 C28.692,27.199 35.059,10.175 27.352,2.935 C18.87,-5.031 3.862,5.661 0.493,13.827 C8.797,20.609 13.717,24.793 15.252,26.38 Z" id="Shape"></path>
                        <path d="M13.196,10.639 C13.196,10.639 17.684,12.017 13.196,24.37 C13.196,24.37 19.801,14.809 23.8,15.157" id="Shape" stroke-linecap="round"></path>
                    </g>
                    <g id="orelha-D" transform="translate(137.686578, 149.797232) rotate(-124.000000) translate(-137.686578, -149.797232) translate(120.686578, 131.797232)" stroke="#000000" stroke-width="2">
                        <path d="M18.446,35.891 C26.104,29.364 37.042,15.69 32.692,6.217 C28.173,-3.623 9.675,-0.538 0.814,8.603 C6.039,14.015 12.87,23.221 18.446,35.891 Z" id="Shape"></path>
                        <path d="M18.639,7.919 C18.639,7.919 18.745,15.223 10.979,21.797 C10.979,21.797 18.815,15.585 22.494,17.123" id="Shape" stroke-linecap="round"></path>
                    </g>
                    <g id="Corpo" transform="translate(210.000000, 309.000000)" fill-rule="nonzero">
                        <path d="M2.826,93.728 C5.617,93.728 251.967,79.946 251.967,71.015 C251.967,62.933 251.49,6.35 241.973,2.294 C223.364,-5.637 14.961,17.823 6.947,37.753 C-1.066,57.683 0.036,93.728 2.826,93.728 Z" id="Path_2_" stroke="#000000" stroke-width="2" fill="#D44756"></path>
                        <g id="Group" transform="translate(5.000000, 50.000000)">
                            <path d="M0.783,51.392 C12.315,78.605 26.938,95.472 44.656,101.993 C71.23,111.774 147.641,108.619 187.407,100.355 C207.534,96.172 224.593,85.622 234.745,68.185 C244.651,51.173 247.901,27.549 247.901,1.273 C247.901,-2.131 229.442,18.446 168.081,35.961 C144.151,42.793 88.385,47.936 0.783,51.392 Z" id="Path_3_" stroke="#000000" stroke-width="2" fill="#0F73B7"></path>
                            <polygon id="Star-3" fill="#FFFFFF" points="224.459 47.98 218.942 50.721 219.994 44.919 215.531 40.81 221.699 39.963 224.459 34.685 227.217 39.963 233.385 40.81 228.922 44.919 229.975 50.721"></polygon>
                            <polygon id="Star-3_1_" fill="#FFFFFF" points="33.024 74.054 27.506 76.793 28.56 70.991 24.097 66.882 30.265 66.036 33.024 60.757 35.782 66.036 41.949 66.882 37.487 70.991 38.541 76.793"></polygon>
                            <polygon id="Star-3_2_" fill="#FFFFFF" points="62.809 95.497 57.291 98.237 58.345 92.436 53.882 88.325 60.05 87.479 62.809 82.201 65.567 87.479 71.735 88.325 67.272 92.436 68.325 98.237"></polygon>
                            <polygon id="Star-3_3_" fill="#FFFFFF" points="205.875 74.054 200.358 76.793 201.412 70.991 196.949 66.882 203.117 66.036 205.875 60.757 208.633 66.036 214.801 66.882 210.338 70.991 211.391 76.793"></polygon>
                        </g>
                        <path d="M0.213,83.925 C0.213,83.925 120.288,91.402 170.213,78.199 C201.307,69.977 249.869,36.239 249.869,36.239 L252.674,53.485 C252.674,53.485 205.27,86.052 170.213,93.733 C133.059,101.875 5.095,103.716 5.095,103.716 L0.213,83.925 Z" id="Path-19" stroke="#000000" stroke-width="2" fill="#FFFFFF"></path>
                    </g>
                    <g id="Boca" transform="translate(259.000000, 178.000000)">
                        <path d="M16.963,34.328 L24.066,51.334 C27.29,54.189 31.114,55.232 35.538,54.463 C42.174,53.309 47.01,51.334 48.053,47.162 C48.747,44.381 46.367,37.083 40.909,25.266 L36.581,28.389 L29.28,29.432 L19.894,29.432 L16.963,34.328 Z" id="Path-2" stroke="#000000" stroke-width="2" fill="#FFFFFF" fill-rule="nonzero"></path>
                        <polyline id="Path-9" stroke="#000000" stroke-width="2" points="30.323 30.476 35.538 42.99 36.581 46.119 37.624 51.334 37.624 53.42"></polyline>
                        <path d="M7.901,41.947 C17.809,42.775 19.894,36.733 32.409,31.518 C44.924,26.303 47.005,30.475 56.397,27.346 C61.764,25.558 58.727,15.767 50.68,10.105 C39.615,2.317 33.086,5.941 32.409,6.329 C30.828,7.233 31.739,0.231 32.409,8.574 C32.721,12.469 29.622,15.727 25.987,16.919 C21.834,18.28 14.814,11.494 13.557,11.151 C12.408,10.838 4.565,17.118 1.662,24.14 C-1.392,31.524 0.689,39.729 7.901,41.947 Z" id="Oval-3" stroke="#000000" stroke-width="2" fill="#FFE1C6" fill-rule="nonzero"></path>
                        <ellipse id="Oval-3_1_" fill="#000000" fill-rule="nonzero" cx="22.523" cy="9.096" rx="11.972" ry="8.865"></ellipse>
                    </g>
                    <g id="olhos" transform="translate(148.000000, 87.000000)">
                        <ellipse id="Oval" stroke="#000000" stroke-width="2" fill="#FFFFFF" fill-rule="nonzero" cx="57.326" cy="83.502" rx="48.495" ry="44.845"></ellipse>
                        <ellipse id="Oval_1_" stroke="#000000" stroke-width="2" fill="#FFFFFF" fill-rule="nonzero" cx="178.303" cy="52.215" rx="48.496" ry="44.845"></ellipse>
                        <path d="M76.683,75.68 C69.417,75.68 63.527,81.572 63.527,88.837 C63.527,96.104 69.417,101.994 76.683,101.994 C83.95,101.994 89.84,96.103 89.84,88.837 C89.84,81.571 83.949,75.68 76.683,75.68 Z M77.378,89.635 C74.058,89.635 71.366,86.943 71.366,83.623 C71.366,80.303 74.057,77.61 77.378,77.61 C80.699,77.61 83.39,80.302 83.39,83.623 C83.39,86.942 80.698,89.635 77.378,89.635 Z" id="Shape" fill="#000000" fill-rule="nonzero"></path>
                        <path d="M203.379,39.72 C196.111,39.72 190.221,45.611 190.221,52.877 C190.221,60.143 196.112,66.033 203.379,66.033 C210.645,66.033 216.533,60.142 216.533,52.877 C216.533,45.61 210.645,39.72 203.379,39.72 Z M205.115,53.674 C201.795,53.674 199.103,50.983 199.103,47.662 C199.103,44.341 201.794,41.65 205.115,41.65 C208.436,41.65 211.129,44.341 211.129,47.662 C211.129,50.983 208.436,53.674 205.115,53.674 Z" id="Shape" fill="#000000" fill-rule="nonzero"></path>
                        <g id="Group" transform="translate(0.000000, 62.000000)" stroke="#000000" stroke-width="1.5" stroke-linecap="round">
                            <path d="M12.649,4.033 C12.649,4.033 6.64,4.487 2.947,0.904" id="Shape"></path>
                            <path d="M10.563,9.248 C10.563,9.248 4.554,9.702 0.861,6.119" id="Shape"></path>
                            <path d="M9.582,13.68 C9.582,13.68 5.232,15.418 2.947,13.68" id="Shape"></path>
                        </g>
                        <g id="Group" transform="translate(190.000000, 0.000000)" stroke="#000000" stroke-width="1.5" stroke-linecap="round">
                            <path d="M0.221,8.736 C0.221,8.736 5.701,8.066 3.948,0.505" id="Shape"></path>
                            <path d="M5.512,10.022 C5.512,10.022 14.492,5.263 9.858,0.504" id="Shape"></path>
                            <path d="M9.821,12.554 C9.821,12.554 15.163,11.321 14.421,8.737" id="Shape"></path>
                        </g>
                    </g>
                    <g id="tiara" transform="translate(120.000000, 0.000000)" stroke="#000000" fill-rule="nonzero" stroke-width="3">
                        <path d="M0.606,115.513 C21.344,102.123 38.288,90.016 51.436,79.191 C71.158,62.955 74.062,60.184 86.406,44.878 C94.635,34.673 98.881,22.235 102.897,0.705 C116.565,14.93 140.251,24.514 155.183,31.545 C170.114,38.577 195.86,44.652 232.42,49.774 L232.42,84.615 C223.59,80.114 209.715,76.661 190.793,74.255 C162.412,70.647 110.774,75.937 80.82,94.661 C60.85,107.144 44.034,121.767 30.374,138.528 L0.606,115.513 Z" id="Path_4_" fill="#F7F178"></path>
                        <polygon id="Star" fill="#D34856" points="123.76 62.145 111.953 73.843 109.85 57.354 95.075 49.739 110.107 42.645 112.783 26.24 124.176 38.343 140.605 35.819 132.615 50.395 140.092 65.24"></polygon>
                    </g>
                    <g id="cinta" transform="translate(202.000000, 248.000000)" stroke-width="2" stroke="#000000" fill="#F7F178" fill-rule="nonzero">
                        <polygon id="Path-4" points="0.546 83.018 74.832 27.885 124.35 57.536 129.246 14.911 164.256 40.636 175.283 0.112 188.992 5.439 187.526 28.054 175.666 70.736 137.453 51.802 126.127 81.567 75.281 55.655 4.784 101.661"></polygon>
                        <polygon id="Path-5" points="5.572 101.414 10.133 116.423 75.091 85.582 139.737 118.898 150.133 84.196 188.256 104.576 196.938 61.22 187.242 34.656 176.065 69.787 138.573 50.936 127.463 80.691 73.789 54.994"></polygon>
                    </g>
                    <g id="escudo" transform="translate(468.078104, 260.037818) rotate(-10.000000) translate(-468.078104, -260.037818) translate(372.578104, 179.037818)">
                        <ellipse id="escudo-exterior" stroke="#000000" stroke-width="3" fill="#D34856" fill-rule="nonzero" transform="translate(96.129177, 80.829858) rotate(89.999835) translate(-96.129177, -80.829858) " cx="96.1291767" cy="80.8298581" rx="80.825" ry="87.602"></ellipse>
                        <ellipse id="escudo-interior" stroke="#000000" stroke-width="2" fill="#0F73B7" fill-rule="nonzero" transform="translate(96.128089, 80.558229) rotate(89.999917) translate(-96.128089, -80.558229) " cx="96.1280891" cy="80.5582292" rx="55.524" ry="57.359"></ellipse>
                        <g id="estrelas" transform="translate(15.000000, 5.000000)" fill-rule="nonzero" fill="#FFFFFF">
                            <polygon id="Star-2" points="81.65 12.408 76.44 14.919 77.433 9.6 73.218 5.834 79.045 5.058 81.649 0.219 84.255 5.058 90.08 5.834 85.866 9.601 86.862 14.92"></polygon>
                            <polygon id="Star-2_1_" points="28.585 33.007 24.228 36.811 23.776 31.419 18.712 28.906 24.124 26.612 25.35 21.255 29.148 25.23 34.968 24.431 31.904 29.181 34.275 34.046"></polygon>
                            <polygon id="Star-2_2_" points="134.504 35.107 128.856 36.352 131.045 31.405 127.808 26.771 133.657 27.355 137.306 23.244 138.727 28.553 144.219 30.645 139.251 33.343 138.996 38.748"></polygon>
                            <polygon id="Star-2_3_" points="28.978 129.671 23.268 128.747 27.13 124.955 25.829 119.454 31.049 122.153 35.956 119.676 35.32 125.137 39.652 129.105 34.039 129.781 31.813 134.713"></polygon>
                            <polygon id="Star-2_4_" points="134.442 127.969 132.004 133.214 129.404 128.469 123.756 128.228 127.767 123.935 126.716 118.541 131.797 120.633 136.797 117.54 135.923 123.125 140.064 126.608"></polygon>
                            <polygon id="Star-2_5_" points="8.646 93.755 3.435 96.266 4.431 90.948 0.216 87.18 6.041 86.405 8.647 81.566 11.253 86.405 17.078 87.181 12.862 90.947 13.857 96.266"></polygon>
                            <polygon id="Star-2_6_" points="153.61 93.754 148.399 96.266 149.397 90.948 145.18 87.181 151.005 86.405 153.611 81.566 156.215 86.405 162.042 87.18 157.826 90.947 158.821 96.266"></polygon>
                            <polygon id="Star-2_7_" points="81.648 147.986 76.44 150.496 77.433 145.179 73.219 141.411 79.045 140.637 81.65 135.797 84.255 140.636 90.082 141.412 85.866 145.178 86.862 150.497"></polygon>
                        </g>
                        <g id="Combined-Shape" transform="translate(13.000000, 64.000000)">
                            <path d="M70.619,25.93 C68.935,22.994 67.123,19.687 65.177,16.008 C61.894,9.938 58.309,6.652 51.076,6.652 L1.965,6.652 C3.141,10.454 4.516,13.376 6.091,15.422 C7.664,17.466 10.016,19.11 13.147,20.351 C33.504,20.367 44.322,20.374 45.593,20.374 C47.503,20.375 51.794,20.532 53.707,24.025 C54.943,26.284 60.508,37.262 70.407,56.954 L82.79,33.382 L95.172,56.955 C105.068,37.261 110.635,26.285 111.873,24.025 C113.786,20.532 118.076,20.374 119.984,20.374 C121.257,20.373 132.073,20.366 152.432,20.351 C155.562,19.109 157.915,17.466 159.489,15.421 C161.063,13.376 162.437,10.453 163.616,6.652 L114.5,6.653 C107.267,6.653 103.683,9.94 100.399,16.009 C98.455,19.687 96.641,22.995 94.959,25.931 L82.812,2.813 L70.619,25.93 Z" id="path-3" fill="#F7F178" fill-rule="nonzero"></path>
                            <path d="M70.585,23.759 L82.814,0.573 L94.993,23.755 C96.401,21.257 97.897,18.511 99.481,15.512 C103.253,8.54 107.351,5.609 114.499,5.609 L165.026,5.609 L164.609,6.961 C163.398,10.872 161.971,13.902 160.312,16.058 C158.614,18.263 156.108,20.014 152.816,21.321 L152.631,21.394 L152.431,21.394 C132.072,21.409 121.256,21.416 119.983,21.417 C116.536,21.417 114.077,22.172 112.787,24.526 C111.559,26.768 105.989,37.751 96.104,57.424 L95.191,59.237 L82.789,35.623 L70.387,59.236 L69.475,57.422 C59.588,37.752 54.018,26.767 52.791,24.525 C51.502,22.172 49.042,21.416 45.593,21.415 C44.32,21.416 33.504,21.408 13.145,21.392 L12.947,21.392 L12.762,21.319 C9.468,20.012 6.963,18.261 5.265,16.056 C3.604,13.901 2.179,10.87 0.969,6.96 L0.549,5.608 L51.078,5.608 C58.226,5.608 62.324,8.539 66.099,15.52 C67.68,18.514 69.175,21.26 70.585,23.759 Z" id="Shape" stroke="#000000" stroke-width="2"></path>
                        </g>
                        <g id="Combined-Shape_1_" transform="translate(0.000000, 45.000000)">
                            <path d="M80.727,29.766 C78.772,26.357 76.666,22.517 74.409,18.245 C70.597,11.197 66.434,7.38 58.033,7.38 L2.042,7.38 C3.409,11.795 5.006,15.189 6.835,17.563 C8.663,19.937 11.393,21.845 15.028,23.287 C38.671,23.305 50.188,23.314 51.668,23.315 C53.883,23.315 58.035,24.09 61.087,27.555 C63.354,30.127 68.989,34.582 80.483,57.452 L94.861,30.076 L109.24,57.453 C120.734,34.582 126.417,30.131 128.637,27.554 C132.286,23.315 135.84,23.314 138.057,23.314 C139.534,23.315 152.092,23.305 175.738,23.287 C179.372,21.844 182.104,19.936 183.931,17.562 C185.76,15.188 187.358,11.793 188.723,7.378 L131.689,7.378 C123.29,7.378 119.126,11.195 115.313,18.242 C113.056,22.515 110.951,26.356 108.995,29.765 L94.89,2.919 L80.727,29.766 Z" id="path-4" fill="#F7F178" fill-rule="nonzero"></path>
                            <path d="M80.693,27.597 L94.891,0.682 L109.03,27.594 C110.709,24.62 112.497,21.34 114.395,17.749 C118.747,9.703 123.456,6.337 131.686,6.336 L190.136,6.336 L189.717,7.687 C188.316,12.211 186.668,15.713 184.754,18.199 C182.802,20.733 179.918,22.75 176.118,24.256 L175.934,24.33 L175.736,24.331 C152.091,24.348 139.533,24.357 138.054,24.357 C134.335,24.357 132.147,25.073 129.424,28.234 C129.117,28.591 127.535,30.267 127.059,30.795 C125.828,32.163 124.619,33.646 123.257,35.508 C119.529,40.614 115.254,47.807 110.17,57.922 L109.26,59.734 L94.862,32.32 L80.461,59.735 L79.549,57.921 C74.459,47.793 70.189,40.596 66.481,35.507 C65.119,33.638 63.906,32.149 62.683,30.794 C62.137,30.189 60.572,28.548 60.304,28.245 C57.964,25.59 54.631,24.358 51.666,24.358 C50.448,24.358 52.852,24.36 15.028,24.331 L14.828,24.331 L14.645,24.257 C10.845,22.75 7.96,20.734 6.009,18.2 C4.095,15.715 2.446,12.212 1.046,7.689 L0.628,6.337 L58.035,6.337 C66.266,6.337 70.975,9.704 75.33,17.758 C77.225,21.342 79.014,24.623 80.693,27.597 Z" id="Shape" stroke="#000000" stroke-width="2"></path>
                        </g>
                    </g>
                </g>
            </g>
            <g id="Titulo">
                <ellipse id="Oval-2" cx="361.5" cy="345.5" rx="361.5" ry="345.5"></ellipse>
                <text id="Wonder-Women-Who-Go" font-family="Raleway-ExtraBold, Raleway" font-size="36" font-weight="600" fill="#EB2626">
                    <tspan x="14.38" y="683">Wonder Women Who Go 2017</tspan>
                </text>
            </g>
        </g>
    </g>
</svg>