<?xml version="1.0" encoding="UTF-8"?>
<svg width="1092px" height="772px" viewBox="0 0 1092 772" version="1.1" xmlns="http://www.w3.org/2000/svg" xmlns:xlink="http://www.w3.org/1999/xlink">
    <!-- Generator: Sketch 44.1 (41455) - http://www.bohemiancoding.com/sketch -->
    <title>Artboard</title>
    <desc>Created with Sketch.</desc>
    <defs>
        <path d="M2,2 L39,18 L150,191 L124,213 L112,203 C44.6666667,105.666667 8,52.3333333 2,43 C-0.666666667,9.66666667 -0.666666667,-4 2,2 Z" id="path-1"></path>
        <path d="M122,183 L141,189 L150,172 C150,172.666667 151,181.333333 153,198 C141,203 137,206 131,218 C124.333333,215.333333 113.666667,211.333333 99,206 L122,202 L122,183 Z" id="path-2"></path>
        <path d="M79.0041453,86.2257017 C77.3901939,83.4105792 75.651023,80.239429 73.7866326,76.712251 C70.6392962,70.8927514 67.201789,67.7410577 60.2666033,67.7410577 L13.1736482,67.7410577 C14.302207,71.3860863 15.6212089,74.1888164 17.1306539,76.149248 C18.6400988,78.1096796 20.8952307,79.6853521 23.8960493,80.8762654 C43.417754,80.8909815 53.7886597,80.8983396 55.0087662,80.8983396 C56.838926,80.8983396 60.9528476,81.0491033 62.7869454,84.3991214 C63.9728953,86.5652838 69.3108615,97.0903394 78.8008438,115.974288 L90.6736482,93.3704008 L102.546453,115.974288 C112.036435,97.0903394 117.374401,86.5652838 118.560351,84.3991214 C120.394449,81.0491033 124.50837,80.8983396 126.33853,80.8983396 C127.558637,80.8983396 137.929542,80.8909815 157.451247,80.8762654 C160.452066,79.6853521 162.707198,78.1096796 164.216642,76.149248 C165.726087,74.1888164 167.045089,71.3860863 168.173648,67.7410577 L121.080693,67.7410577 C114.145507,67.7410577 110.708,70.8927514 107.560664,76.712251 C105.696273,80.239429 103.957103,83.4105792 102.343151,86.2257017 L90.6968826,64.0594143 L79.0041453,86.2257017 Z" id="path-3"></path>
        <path d="M76.232782,71.6865039 C74.3585158,68.4173294 72.3388335,64.7347034 70.173735,60.6386258 C66.5187636,53.8804972 62.5268198,50.2204658 54.4730558,50.2204658 L0.784462756,50.2204658 C2.09504721,54.4534022 3.62679135,57.7081856 5.37969518,59.9848158 C7.132599,62.2614461 9.75146176,64.0912593 13.2362835,65.4742553 C35.9066502,65.4913451 46.9502826,65.4998899 48.3671805,65.4998899 C50.4925274,65.4998899 54.4730558,66.2437519 57.3999047,69.5653139 C59.5742723,72.0329154 64.9760653,76.3035026 75.99669,98.2332496 L89.7844628,71.9835739 L103.572236,98.2332496 C114.59286,76.3035026 120.041524,72.0363606 122.169021,69.5653139 C125.669228,65.4998899 129.076398,65.4998899 131.201745,65.4998899 C132.618643,65.4998899 144.662275,65.4913451 167.332642,65.4742553 C170.817464,64.0912593 173.436327,62.2614461 175.18923,59.9848158 C176.942134,57.7081856 178.473878,54.4534022 179.784463,50.2204658 L125.09587,50.2204658 C117.042106,50.2204658 113.050162,53.8804972 109.395191,60.6386258 C107.230092,64.7347034 105.21041,68.4173294 103.336144,71.6865039 L89.8114447,45.9450089 L76.232782,71.6865039 Z" id="path-4"></path>
    </defs>
    <g id="Page-1" stroke="none" stroke-width="1" fill="none" fill-rule="evenodd">
        <g id="Artboard">
            <g id="Fundo" transform="translate(186.000000, 50.000000)" stroke="#000000">
                <circle id="Fundo-(exterior)" stroke-width="3" fill="#0F73B7" cx="325" cy="325" r="325"></circle>
                <circle id="Fundo-(interior)" stroke-width="2" fill="#D8D8D8" cx="325" cy="322" r="275"></circle>
                <polygon id="Star-4" stroke-width="2" fill="#FFFFFF" points="24.5 349 11.8626171 355.798374 14.2761424 341.399187 4.0522849 331.201626 18.1813085 329.100813 24.5 316 30.8186915 329.100813 44.9477151 331.201626 34.7238576 341.399187 37.1373829 355.798374"></polygon>
                <polygon id="Star-4" stroke-width="2" fill="#FFFFFF" points="557.5 144 544.862617 150.798374 547.276142 136.399187 537.052285 126.201626 551.181309 124.100813 557.5 111 563.818691 124.100813 577.947715 126.201626 567.723858 136.399187 570.137383 150.798374"></polygon>
                <polygon id="Star-4" stroke-width="2" fill="#FFFFFF" points="536.5 547 523.862617 553.798374 526.276142 539.399187 516.052285 529.201626 530.181309 527.100813 536.5 514 542.818691 527.100813 556.947715 529.201626 546.723858 539.399187 549.137383 553.798374"></polygon>
                <polygon id="Star-4" stroke-width="2" fill="#FFFFFF" points="324.5 633 311.862617 639.798374 314.276142 625.399187 304.052285 615.201626 318.181309 613.100813 324.5 600 330.818691 613.100813 344.947715 615.201626 334.723858 625.399187 337.137383 639.798374"></polygon>
                <polygon id="Star-4" stroke-width="2" fill="#FFFFFF" points="103.5 130 90.8626171 136.798374 93.2761424 122.399187 83.0522849 112.201626 97.1813085 110.100813 103.5 97 109.818691 110.100813 123.947715 112.201626 113.723858 122.399187 116.137383 136.798374"></polygon>
                <polygon id="Star-4" stroke-width="2" fill="#FFFFFF" points="624.5 343 611.862617 349.798374 614.276142 335.399187 604.052285 325.201626 618.181309 323.100813 624.5 310 630.818691 323.100813 644.947715 325.201626 634.723858 335.399187 637.137383 349.798374"></polygon>
                <polygon id="Star-4" stroke-width="2" fill="#FFFFFF" points="323.5 36 310.862617 42.7983739 313.276142 28.3991869 303.052285 18.2016261 317.181309 16.1008131 323.5 3 329.818691 16.1008131 343.947715 18.2016261 333.723858 28.3991869 336.137383 42.7983739"></polygon>
                <polygon id="Star-4" stroke-width="2" fill="#FFFFFF" points="124.5 555 111.862617 561.798374 114.276142 547.399187 104.052285 537.201626 118.181309 535.100813 124.5 522 130.818691 535.100813 144.947715 537.201626 134.723858 547.399187 137.137383 561.798374"></polygon>
            </g>
            <g id="Gopher" transform="translate(231.000000, 122.000000)">
                <g id="espada" transform="translate(0.000000, 92.000000)">
                    <path d="M163.102204,232.516418 L168.102204,254.516418 L186.102204,246.516418 C181.550264,240.491044 178.550264,236.491044 177.102204,234.516418 C175.654145,232.541791 174.654145,230.208458 174.102204,227.516418 L163.102204,232.516418 Z" id="Path-10" stroke="#000000" stroke-width="2" fill="#8B572A" transform="translate(174.602204, 241.016418) rotate(-15.000000) translate(-174.602204, -241.016418) "></path>
                    <g id="Rectangle">
                        <use fill="#FFFFFF" fill-rule="evenodd" xlink:href="#path-1"></use>
                        <path stroke="#000000" stroke-width="2" d="M1.21211337,2.68946954 C1.0749584,3.80264096 1,5.50321377 1,7.75 C1,14.5152854 1.65880535,26.1607469 2.97678318,42.6695949 C9.36414901,52.5520117 45.967064,105.788472 112.744869,202.319016 L123.995091,211.694201 L148.685191,190.802578 L38.3230865,18.796775 L1.24474876,2.76289916 L1.21211337,2.68946954 Z"></path>
                    </g>
                    <path d="M2,4 L123,184" id="Path-11" stroke="#000000" stroke-width="2"></path>
                    <g id="Rectangle-2">
                        <use fill="#F6A623" fill-rule="evenodd" xlink:href="#path-2"></use>
                        <path stroke="#000000" stroke-width="2" d="M123,184.364466 L123,202.841097 L102.863158,206.343157 C115.155759,210.830595 124.373522,214.293166 130.519573,216.732174 C136.056964,205.858597 139.979221,202.409345 151.917216,197.369699 C150.621062,186.562109 149.766854,179.29966 149.334669,175.394001 L141.493763,190.204602 L123,184.364466 Z"></path>
                    </g>
                    <path d="M152.912424,237.552955 C163.909752,237.552955 172.824848,229.096917 172.824848,218.665865 C172.824848,216.629705 178.554154,210.944448 178.951748,208.173037 C179.477547,204.507976 175.570138,200.616099 173.845998,198.729492 C172.25458,196.988113 170.904866,191.058874 167.484638,191.585996 C165.053971,191.960607 160.741435,198.51882 158.308573,199.031471 C156.310901,199.452419 154.44154,199.778775 152.912424,199.778775 C146.115076,199.778775 140.113216,203.009289 136.520311,207.939931 C134.300308,210.986502 133,214.682151 133,218.665865 C133,229.096917 141.915096,237.552955 152.912424,237.552955 Z" id="Oval-4" stroke="#000000" stroke-width="3" fill="#FFE1C6"></path>
                    <path d="M150.540141,199.718836 C158.722856,200.093031 164.822494,203.05576 168.839054,208.607022 C172.855614,214.158284 172.855614,220.991103 168.839054,229.105479" id="Path-14" stroke="#000000" stroke-width="2"></path>
                    <path d="M143,219 C146.140831,218.371383 148.842796,217.367395 151.105895,215.988035 C153.368994,214.608676 155.333696,212.945997 157,211" id="Path-13" stroke="#000000" stroke-width="2"></path>
                    <path d="M150,227 C151.901187,226.939248 154.234521,226.118735 157,224.538462 C159.765479,222.958188 162.098813,221.112034 164,219" id="Path-13" stroke="#000000" stroke-width="2"></path>
                </g>
                <g id="pé-esquerdo" transform="translate(204.589121, 443.186794) rotate(20.000000) translate(-204.589121, -443.186794) translate(177.089121, 419.686794)" stroke="#000000">
                    <path d="M23.8504885,0.00941974949 C13.1398677,5.06499463 6.47389197,9.96945242 3.85256142,14.7227931 C-0.0794344054,21.8528042 -3.35424343,33.5214275 7.91273571,43.2864417 C15.5074272,49.8687092 31.3838318,44.8611439 38.1128552,39.1949502 C47.2475514,31.5030527 52.5942713,22.5259373 54.153015,12.263604 L23.8504885,0.00941974949 Z" id="Path-3" stroke-width="3" fill="#FFE1C6"></path>
                    <path d="M10.7337476,29.4843984 C10.7337476,29.4843984 10.1284252,26.3086393 14.0630227,19.6224254 C17.2203874,14.2569933 19.9788166,11.1448846 22.3383102,10.2860991" id="Path-15" stroke-width="2"></path>
                    <path d="M22,32.7211086 C22,32.7211086 23.2203027,25.9458057 27.9279851,20.5278711 C29.2369608,19.0214091 31.6003417,16.8454521 35.0181278,14" id="Path" stroke-width="2"></path>
                </g>
                <g id="pé-direito" transform="translate(396.000000, 391.000000)" stroke="#000000">
                    <path d="M22,1 C24,0.333333333 27.6666667,0.333333333 33,1 C38.3333333,1.66666667 42.6666667,5 46,11 C52,22.3333333 52,30.6666667 46,36 C42,41 10,43 0,34 C1.33333333,29.3333333 8.66666667,18.3333333 22,1 Z" id="Path-16" stroke-width="3" fill="#FFE1C6"></path>
                    <path d="M46,20 C45.0822895,18.298467 43.0822895,16.6318003 40,15 C36.9177105,13.3681997 33.2510439,12.0348664 29,11" id="Path-17" stroke-width="2"></path>
                    <path d="M45,26 C42.2246238,24.0064799 39.5579571,22.6731466 37,22 C34.4420429,21.3268534 30.7753762,20.9935201 26,21" id="Path-18" stroke-width="2"></path>
                </g>
                <g id="orelha-E" transform="translate(322.000000, 72.000000)" stroke="#000000">
                    <path d="M27.675772,30.4776257 C39.1338011,21.0452209 32.9168404,4.57050265 24.9449654,0.164252652 C23.6641334,3.07493497 2.30295781,18.5397315 0.132645305,24.5553565 C2.30295781,33.6663364 16.217743,39.9100304 27.675772,30.4776257 Z" id="Oval-2" stroke-width="2" fill="#A6D0ED" transform="translate(17.047072, 17.667084) scale(1, -1) translate(-17.047072, -17.667084) "></path>
                    <path d="M22.0724664,25.1474812 C27.5897949,18.9221304 25.4152825,10.3760854 18.5331309,8.5181823 C17.8284883,9.97847834 7.20660222,18.0023157 6.01261684,21.0203686 C9.33926322,26.2400083 16.5551379,31.3728319 22.0724664,25.1474812 Z" id="Oval-2" fill="#000000" transform="translate(15.603842, 18.261645) scale(1, -1) rotate(-3.000000) translate(-15.603842, -18.261645) "></path>
                </g>
                <g id="orelha-D" transform="translate(115.411534, 147.585047) rotate(-124.000000) translate(-115.411534, -147.585047) translate(97.911534, 127.585047)">
                    <path d="M31.5573642,30.0247987 C38.7919028,17.8276057 31.5609375,5.39937394 23.5890625,0.993123942 C22.3082305,3.90380626 2.22553038,26.0387068 0.0552178841,32.0543318 C7.46863622,43.0451764 24.3228256,42.2219917 31.5573642,30.0247987 Z" id="Oval-2" stroke="#000000" stroke-width="2" fill="#A6D0ED" transform="translate(17.295857, 20.380546) scale(1, -1) translate(-17.295857, -20.380546) "></path>
                    <path d="M25.2578681,28.2889409 C30.6500057,17.3911933 22.042423,12.0083604 17.6567402,9.79773459 C17.1406879,10.8671974 11.305507,15.4570256 7.75001907,19.0227587 C6.45067232,20.3258495 5.01655006,26.7793025 4.69699211,27.5870534 C4.69699211,32.1502737 19.8657305,39.1866886 25.2578681,28.2889409 Z" id="Oval-2" fill="#000000" transform="translate(15.837959, 21.932119) scale(1, -1) rotate(-3.000000) translate(-15.837959, -21.932119) "></path>
                </g>
                <g id="Corpo" transform="translate(115.000000, 69.000000)" stroke="#000000">
                    <path d="M1.02221734,98.9134032 C0.695119593,106.123033 -0.064741496,131.485884 9.71484375,151 C19.494429,170.514116 25.157216,177.871942 29.515625,184.410156 C37.7076575,196.699334 62,226 67.0429687,245.242187 C70.4049479,258.070312 71.4140625,274.295573 70.0703125,293.917969 C70.0193721,303.977501 70.5597367,311.895469 71.6914062,317.671875 C72.8230758,323.448281 74.903805,328.909218 77.9335937,334.054688 C89.4361979,351.403646 102.65625,364.565104 117.59375,373.539063 C140,387 219,381 254.472656,371.96875 C289.945313,362.9375 301,348 311.335938,301.328125 C318.226563,270.213542 303.180253,208.170573 266.19701,115.199219 L259.691406,102.96875 C255.813208,95.1496882 250.975968,83.0364069 245.179688,66.6289062 C240.074041,52.1763798 237.207086,41.9220874 219.805418,23.9274419 C218.236151,22.3047005 212.974188,17.8484178 204.019531,10.5585938 C175.683594,-3.20576291 137.726562,-3.20576291 90.1484375,10.5585938 C18.78125,31.2051287 1.66385417,84.7709523 1.02221734,98.9134032 Z" id="Path" stroke-width="3" fill="#A6D0ED"></path>
                    <path d="M73.0210918,309.207486 C75.6966902,309.207486 311.582723,304.455814 311.582723,295.892302 C311.582723,288.1439 311.126445,233.889151 302,230 C284.155933,222.395916 84.3264372,244.890539 76.6429895,264 C68.9595417,283.109461 70.3454933,309.207486 73.0210918,309.207486 Z" id="Path" stroke-width="2" fill="#D44756"></path>
                    <path d="M75.52711,325.020315 C86.584017,351.113332 100.60623,367.286247 117.59375,373.539063 C143.075029,382.918285 216.343008,379.892807 254.472656,371.96875 C273.772397,367.957901 290.127032,357.841625 299.862849,341.122058 C309.361656,324.809512 312.476683,302.158167 312.476683,276.964222 C312.476683,273.698491 294.779044,293.42935 235.941588,310.224968 C212.996269,316.77489 159.524776,321.706673 75.52711,325.020315 Z" id="Path" stroke-width="2" fill="#0F73B7"></path>
                </g>
                <g id="Boca" transform="translate(225.000000, 181.000000)" stroke="#000000" stroke-width="2">
                    <path d="M24.1896618,32.693459 L31,49 C34.0914844,51.7377129 37.7581511,52.7377129 42,52 C48.3627734,50.8934307 53,49 54,45 C54.6666667,42.3333333 52.3835527,35.3349702 47.1506581,24.0049105 L43,27 L36,28 L27,28 L24.1896618,32.693459 Z" id="Path-2" fill="#FFFFFF"></path>
                    <polyline id="Path-9" points="37 29 42 41 43 44 44 49 44 51"></polyline>
                    <path d="M3.34574378,17.9974515 C-0.297469315,24.9974515 -2.23101914,34.7332816 11.2597421,38.8823408 C24.7505034,43.0313999 30.4156676,30.7048179 33,30 C35.5843324,29.2951821 36.0843324,30.7951821 39,30 C41.9156676,29.2048179 42.3285753,27.5571416 44,27 C45.6714247,26.4428584 50.5306656,33 59.5355438,30 C68.5404219,27 68.5404219,22.1946588 68.5404219,16.0010201 C68.5404219,9.8073815 61.5619338,1.22610267 46,4 C30.4380662,6.77389733 40.5164567,4.98031421 39,5.84686091 C37.4835433,6.71340761 38.3577142,-1.70974346e-13 39,8 C39.2997193,11.7331578 36.3278255,14.8585014 32.8427187,16.0010201 C28.8593884,17.3068709 22.1288615,10.79958 20.9232406,10.4707743 C18.6627945,9.85428902 6.98895688,10.9974515 3.34574378,17.9974515 Z" id="Oval-3" fill="#FFE1C6"></path>
                    <ellipse id="Oval-3" fill="#4A4A4A" cx="29.5208059" cy="8.5" rx="11.4791941" ry="8.5"></ellipse>
                </g>
                <g id="olhos" transform="translate(134.000000, 91.000000)">
                    <ellipse id="Oval" stroke="#000000" stroke-width="2" fill="#FFFFFF" cx="46.5" cy="73" rx="46.5" ry="43"></ellipse>
                    <ellipse id="Oval" stroke="#000000" stroke-width="2" fill="#FFFFFF" cx="162.5" cy="43" rx="46.5" ry="43"></ellipse>
                    <ellipse id="Oval" fill="#000000" cx="70.5" cy="72.5" rx="7.5" ry="10.5"></ellipse>
                    <ellipse id="Oval" fill="#000000" cx="184.5" cy="42.5" rx="7.5" ry="10.5"></ellipse>
                </g>
                <g id="tiara" transform="translate(99.000000, 0.000000)" stroke="#000000" stroke-width="3">
                    <path d="M0.265625,111.273438 C20.1504573,98.434011 36.396551,86.824636 49.0039062,76.4453125 C67.9149391,60.8763272 70.7001411,58.2208314 82.5351562,43.5429688 C90.4251663,33.757727 98.6959997,19.3059041 107.347656,0.1875 C120.453969,13.8265734 134.165654,24.0172039 148.48271,30.7593914 C162.799767,37.5015789 187.48652,43.3276151 222.542969,48.2375001 L222.542969,81.6445312 C214.076172,77.328726 200.771484,74.0175281 182.628906,71.7109375 C155.415039,68.2510517 105.901477,73.3227696 77.1796875,91.2773438 C58.0318276,103.24706 41.9081297,117.267893 28.8085937,133.339844 L0.265625,111.273438 Z" id="Path" fill="#F7F178"></path>
                    <polygon id="Star" fill="#D34856" transform="translate(114.174861, 46.433147) rotate(-17.000000) translate(-114.174861, -46.433147) " points="114.174861 60.7249431 100.068015 68.141351 102.762183 52.433147 91.3495051 41.3085352 107.121438 39.0167392 114.174861 24.7249431 121.228284 39.0167392 137.000218 41.3085352 125.58754 52.433147 128.281708 68.141351"></polygon>
                </g>
                <g id="cinta" transform="translate(184.000000, 238.000000)" stroke-width="2" stroke="#000000" fill="#F7F178">
                    <polygon id="Path-4" points="0.834386344 80.9121794 65.0652665 27.0473136 112.545237 55.4783304 117.238426 14.6076649 150.809295 39.2733413 161.384614 0.418049964 174.527702 5.52553454 173.122982 27.2091477 161.751438 68.1359157 125.110038 49.9802862 114.24989 78.5213502 65.4946663 53.6744195 2.89808885 98.7884686"></polygon>
                    <polygon id="Path-5" points="2.65340176 98.5520976 3.02669911 111.943331 65.3134121 82.3708442 127.298035 114.316898 137.267016 81.0416467 173.822105 100.582576 182.146852 59.0106296 172.851101 33.5400982 162.131209 67.2253291 126.182458 49.1495377 115.529458 77.6819706 64.0640528 53.0421876"></polygon>
                </g>
                <g id="escudo" transform="translate(432.022788, 249.760472) rotate(-10.000000) translate(-432.022788, -249.760472) translate(342.022788, 172.260472)">
                    <ellipse id="escudo-exterior" stroke="#000000" stroke-width="3" fill="#D34856" cx="91" cy="77.5" rx="84" ry="77.5"></ellipse>
                    <ellipse id="escudo-interior" stroke="#000000" stroke-width="2" fill="#0F73B7" cx="91" cy="77.24" rx="55" ry="53.24"></ellipse>
                    <g id="estrelas" transform="translate(13.000000, 5.000000)" fill="#FFFFFF">
                        <polygon id="Star-2" points="78.5 11.6875 73.5038254 14.0952574 74.4580098 8.99554537 70.4160196 5.38390925 76.0019127 4.63987129 78.5 0 80.9980873 4.63987129 86.5839804 5.38390925 82.5419902 8.99554537 83.4961746 14.0952574"></polygon>
                        <polygon id="Star-2" points="26.5 31.6875 21.5038254 34.0952574 22.4580098 28.9955454 18.4160196 25.3839093 24.0019127 24.6398713 26.5 20 28.9980873 24.6398713 34.5839804 25.3839093 30.5419902 28.9955454 31.4961746 34.0952574"></polygon>
                        <polygon id="Star-2" points="131.5 31.6875 126.503825 34.0952574 127.45801 28.9955454 123.41602 25.3839093 129.001913 24.6398713 131.5 20 133.998087 24.6398713 139.58398 25.3839093 135.54199 28.9955454 136.496175 34.0952574"></polygon>
                        <polygon id="Star-2" points="30.5 124.6875 25.5038254 127.095257 26.4580098 121.995545 22.4160196 118.383909 28.0019127 117.639871 30.5 113 32.9980873 117.639871 38.5839804 118.383909 34.5419902 121.995545 35.4961746 127.095257"></polygon>
                        <polygon id="Star-2" points="126.5 123.6875 121.503825 126.095257 122.45801 120.995545 118.41602 117.383909 124.001913 116.639871 126.5 112 128.998087 116.639871 134.58398 117.383909 130.54199 120.995545 131.496175 126.095257"></polygon>
                        <polygon id="Star-2" points="8.5 89.6875 3.50382536 92.0952574 4.45800981 86.9955454 0.416019611 83.3839093 6.00191268 82.6398713 8.5 78 10.9980873 82.6398713 16.5839804 83.3839093 12.5419902 86.9955454 13.4961746 92.0952574"></polygon>
                        <polygon id="Star-2" points="147.5 89.6875 142.503825 92.0952574 143.45801 86.9955454 139.41602 83.3839093 145.001913 82.6398713 147.5 78 149.998087 82.6398713 155.58398 83.3839093 151.54199 86.9955454 152.496175 92.0952574"></polygon>
                        <polygon id="Star-2" points="78.5 141.6875 73.5038254 144.095257 74.4580098 138.995545 70.4160196 135.383909 76.0019127 134.639871 78.5 130 80.9980873 134.639871 86.5839804 135.383909 82.5419902 138.995545 83.4961746 144.095257"></polygon>
                    </g>
                    <g id="Combined-Shape">
                        <use fill="#F7F178" fill-rule="evenodd" xlink:href="#path-3"></use>
                        <path stroke="#000000" stroke-width="2" d="M78.9715026,84.1442688 L90.6986444,61.9127599 L102.377546,84.1411569 C103.727065,81.7460008 105.160799,79.1125956 106.681062,76.2365397 C110.296456,69.5515919 114.227841,66.7410577 121.080693,66.7410577 L169.530098,66.7410577 L169.128909,68.0368218 C167.967971,71.7864285 166.600316,74.6925407 165.008989,76.7593195 C163.381147,78.8735216 160.978375,80.5523512 157.820123,81.8057442 L157.642789,81.8761213 L157.452001,81.8762651 C137.929324,81.890982 127.559051,81.8983396 126.33853,81.8983396 C123.032938,81.8983396 120.672802,82.6230345 119.437495,84.8793482 C118.260401,87.0293356 112.918883,97.5613953 103.439969,116.423318 L102.566109,118.162198 L90.6736482,95.5208883 L78.7811876,118.162198 L77.9073271,116.423318 C68.4284137,97.5613953 63.0868954,87.0293356 61.9098011,84.8793482 C60.6744943,82.6230345 58.3143582,81.8983396 55.0087662,81.8983396 C53.7882456,81.8983396 43.4179721,81.890982 23.8952955,81.8762651 L23.7045074,81.8761213 L23.5271738,81.8057442 C20.3689211,80.5523512 17.9661489,78.8735216 16.3383075,76.7593195 C14.7469799,74.6925407 13.379325,71.7864285 12.2183871,68.0368218 L11.817198,66.7410577 L60.2666033,66.7410577 C67.1194558,66.7410577 71.0508408,69.5515919 74.6707249,76.2449388 C76.1879707,79.1153655 77.6216045,81.7485277 78.9715026,84.1442688 Z"></path>
                    </g>
                    <g id="Combined-Shape">
                        <use fill="#F7F178" fill-rule="evenodd" xlink:href="#path-4"></use>
                        <path stroke="#000000" stroke-width="2" d="M76.1996226,69.6060507 L89.8132065,43.7983545 L103.371056,69.6029449 C104.981333,66.7515857 106.695332,63.6065168 108.515589,60.1629145 C112.687982,52.4480603 117.202753,49.2204658 125.09587,49.2204658 L181.140913,49.2204658 L180.739724,50.5162298 C179.39676,54.8537444 177.816363,58.2119099 175.981577,60.5948873 C174.110276,63.0252881 171.343773,64.9582583 167.701518,66.4037341 L167.524184,66.4741112 L167.333396,66.474255 C144.662057,66.4913455 132.619057,66.4998899 131.201745,66.4998899 C127.636094,66.4998899 125.537291,67.1857902 122.926843,70.2177756 C122.632422,70.5597399 121.114782,72.1661307 120.658459,72.6726296 C119.477767,73.9831484 118.317441,75.4055129 117.013205,77.1919261 C113.438861,82.0877086 109.339119,88.9848534 104.465752,98.6822795 L103.591892,100.421159 L89.7844628,74.1340614 L75.9770338,100.421159 L75.1031732,98.6822795 C70.2227854,88.9708817 66.1281739,82.0697735 62.5727204,77.1898434 C61.2669645,75.3976676 60.1036179,73.9704776 58.9310336,72.672056 C58.406434,72.0911584 56.906209,70.5176212 56.6496254,70.2264349 C54.4069793,67.6813469 51.2101226,66.4998899 48.3671805,66.4998899 C47.1998507,66.4998899 49.5039335,66.5015955 13.2355296,66.474255 L13.0447415,66.4741112 L12.8674079,66.4037341 C9.22515216,64.9582583 6.45864907,63.0252881 4.58734876,60.5948873 C2.75256237,58.2119099 1.17216523,54.8537444 -0.17079828,50.5162298 L-0.571987433,49.2204658 L54.4730558,49.2204658 C62.3661727,49.2204658 66.8809431,52.4480603 71.0578273,60.1713136 C72.8749603,63.6090868 74.5889372,66.7540565 76.1996226,69.6060507 Z"></path>
                    </g>
                </g>
                <polygon id="Path-19" stroke="#000000" stroke-width="2" fill="#D5CDCD" transform="translate(306.125346, 363.803196) rotate(5.000000) translate(-306.125346, -363.803196) " points="186.820535 387.76197 301.35502 376.737681 348.728058 368.085506 381.015047 347.792431 421.308828 321.347354 425.430157 337.587162 350.026316 382.924663 193.137951 406.259038"></polygon>
                <polygon id="Star-3" fill="#FFFFFF" points="405 390.75 399.709933 393.376644 400.720246 387.813322 396.440491 383.873356 402.354966 383.061678 405 378 407.645034 383.061678 413.559509 383.873356 409.279754 387.813322 410.290067 393.376644"></polygon>
                <polygon id="Star-3" fill="#FFFFFF" points="230 415.75 224.709933 418.376644 225.720246 412.813322 221.440491 408.873356 227.354966 408.061678 230 403 232.645034 408.061678 238.559509 408.873356 234.279754 412.813322 235.290067 418.376644"></polygon>
                <polygon id="Star-3" fill="#FFFFFF" points="300 427.75 294.709933 430.376644 295.720246 424.813322 291.440491 420.873356 297.354966 420.061678 300 415 302.645034 420.061678 308.559509 420.873356 304.279754 424.813322 305.290067 430.376644"></polygon>
                <polygon id="Star-3" fill="#FFFFFF" points="367 415.75 361.709933 418.376644 362.720246 412.813322 358.440491 408.873356 364.354966 408.061678 367 403 369.645034 408.061678 375.559509 408.873356 371.279754 412.813322 372.290067 418.376644"></polygon>
            </g>
            <g id="Legenda" transform="translate(496.000000, 361.000000)" font-size="48" font-family="Raleway-ExtraBold, Raleway" letter-spacing="-3.29999995" fill="#EB2626" font-weight="600">
                <text id="Wonder-Women-Who-Go-2017">
                    <tspan x="0.651999428" y="375">Wonder Women Who Go 2017</tspan>
                </text>
            </g>
        </g>
    </g>
</svg>